HIERARCHY
ROOT Hips
{
  OFFSET 0 0 0
  CHANNELS 6 Xposition Yposition Zposition Zrotation Yrotation Xrotation
  JOINT LeftThigh
  {
    OFFSET 8.409438 0 -5.917753
    CHANNELS 3 Zrotation Yrotation Xrotation
    JOINT LeftLeg
    {
      OFFSET 0 0 -42.358652
      CHANNELS 3 Zrotation Yrotation Xrotation
      JOINT LeftFoot
      {
        OFFSET 0 0 -39.357303
        CHANNELS 3 Zrotation Yrotation Xrotation
      }
    }
  }
  JOINT RightThigh
  {
    OFFSET -8.409438 0 -5.917753
    CHANNELS 3 Zrotation Yrotation Xrotation
    JOINT RightLeg
    {
      OFFSET 0 0 -42.358652
      CHANNELS 3 Zrotation Yrotation Xrotation
      JOINT RightFoot
      {
        OFFSET 0 0 -39.357303
        CHANNELS 3 Zrotation Yrotation Xrotation
      }
    }
  }
  JOINT SpineLow
  {
    OFFSET 0 0 4.719101
    CHANNELS 3 Zrotation Yrotation Xrotation
    JOINT SpineMid
    {
      OFFSET 0 0 12.899191
      CHANNELS 3 Zrotation Yrotation Xrotation
      JOINT Chest
      {
        OFFSET 0 0 12.899191
        CHANNELS 3 Zrotation Yrotation Xrotation
        JOINT LeftShoulder
        {
          OFFSET 7.550562 1.41573 9.438202
          CHANNELS 3 Zrotation Yrotation Xrotation
          JOINT LeftArm
          {
            OFFSET 9.155056 0 4.247191
            CHANNELS 3 Zrotation Yrotation Xrotation
            JOINT LeftForearm
            {
              OFFSET 0 0 25.771955
              CHANNELS 3 Zrotation Yrotation Xrotation
              JOINT LeftHand
              {
                OFFSET 0 0 25.197169
                CHANNELS 3 Zrotation Yrotation Xrotation
              }
            }
          }
        }
        JOINT RightShoulder
        {
          OFFSET -7.550562 1.41573 9.438202
          CHANNELS 3 Zrotation Yrotation Xrotation
          JOINT RightArm
          {
            OFFSET -9.155056 0 4.247191
            CHANNELS 3 Zrotation Yrotation Xrotation
            JOINT RightForearm
            {
              OFFSET 0 0 -25.771955
              CHANNELS 3 Zrotation Yrotation Xrotation
              JOINT RightHand
              {
                OFFSET 0 0 -25.197169
                CHANNELS 3 Zrotation Yrotation Xrotation
              }
            }
          }
        }
        JOINT Neck
        {
          OFFSET 0 0 15.101124
          CHANNELS 3 Zrotation Yrotation Xrotation
          JOINT Head
          {
            OFFSET 0 0 11.325843
            CHANNELS 3 Zrotation Yrotation Xrotation
            End Site
            {
              OFFSET 0 0 14.157303
            }
          }
        }
      }
    }
  }
}
MOTION
Frames: 16
Frame Time: 0.0
0.0  93.25843  0.0  -1.148234  -29.906163  -91.2358  21.992103  -12.300298  4.255107  5.768734  -1.594752  6.873449  5.66088  0.679444  0.994074  -9.803794  -0.699028  -9.96568  -7.998675  4.513704  0.862137  6.873769  1.075787  0.868149  1.17325  -1.66783  0.872676  3.150907  -4.599334  2.307149  3.150907  -4.599334  2.307149  -22.645804  28.808297  -15.856082  119.441751  36.064016  -178.282203  62.629165  -0.379819  37.305967  92.865138  36.473933  -2.67242  0.457882  1.281829  18.651809  93.76537  40.604731  29.992615  2.18995  -35.251862  -113.394274  62.191385  36.776029  12.489385  1.696359  9.287569  2.041968  1.238208  6.971482  1.502135  
0.0  93.25843  0.0  -1.144044  -29.805277  -91.263745  21.809595  -12.360676  4.244319  5.806691  -1.511972  6.983694  5.659394  0.675952  0.989484  -9.779346  -0.76857  -9.92817  -7.753791  4.718357  1.052069  6.885466  1.091596  0.841296  1.201132  -1.6729  0.889624  3.225875  -4.61495  2.351343  3.225875  -4.61495  2.351343  -22.501896  28.676193  -15.860183  119.793002  36.24915  -178.03392  62.134317  -0.85249  37.628919  92.579047  36.206529  -2.697326  0.409437  1.274914  18.643039  93.659745  40.59849  29.94375  2.08025  -35.220178  -113.201  62.362632  36.767478  12.661518  1.554096  9.221961  2.012318  1.132456  6.921713  1.482341  
0.0  93.25843  0.0  -1.181214  -29.715256  -91.32269  21.308506  -12.482895  4.124059  5.933947  -1.411707  7.18053  5.749325  0.677836  1.065737  -10.034213  -0.931489  -9.912064  -7.444255  4.945105  1.268136  7.154401  1.113953  0.879737  1.216698  -1.682516  0.913801  3.266471  -4.642941  2.415969  3.266471  -4.642941  2.415969  -21.970465  28.689216  -15.80352  120.380041  36.406341  -177.783013  61.84887  -1.531156  38.037299  92.219397  35.813825  -2.738955  0.262364  1.275569  18.481709  93.563183  40.549793  29.877762  2.197926  -35.215714  -113.068462  62.432211  36.782524  12.790513  1.428891  9.124265  1.965162  1.039842  6.847906  1.449254  
0.0  93.25843  0.0  -1.197796  -29.548885  -91.351583  21.051589  -12.600523  4.086906  5.966782  -1.284842  7.36796  5.72564  0.659556  1.050548  -10.060463  -1.022423  -9.825248  -7.163435  5.207728  1.47726  7.14983  1.103389  0.853856  1.235287  -1.688888  0.934799  3.315653  -4.662051  2.471817  3.315653  -4.662051  2.471818  -21.719074  28.604035  -15.807293  120.959077  36.649195  -177.421595  61.054287  -2.159814  38.411907  91.774271  35.369064  -2.743812  0.284385  1.271652  18.47743  93.420576  40.54059  29.821564  2.038132  -35.213212  -112.915341  62.500129  36.767475  12.915564  1.303549  9.045438  1.927326  0.946893  6.788293  1.423047  
0.0  93.25843  0.0  -1.3221  -29.298118  -91.339922  20.396317  -12.818667  3.871433  5.994509  -1.140105  7.592156  5.829092  0.650059  1.145738  -10.348228  -1.236321  -9.79422  -7.188894  5.473514  1.629213  7.540967  1.112334  0.941542  1.202997  -1.728296  0.915375  3.22738  -4.767611  2.419159  3.22738  -4.767611  2.419159  -20.921809  28.859623  -15.47633  122.726591  36.926116  -176.982659  60.89588  -3.268203  39.110635  91.497754  34.821037  -2.790077  0.275793  1.401059  18.563504  93.47815  40.373614  29.817793  1.814213  -35.122765  -112.695466  62.404721  36.730047  12.922682  1.291736  8.997532  2.025552  0.936772  6.752539  1.496875  
0.0  93.25843  0.0  -1.384203  -29.029115  -91.335427  20.063023  -12.97742  3.736991  6.007426  -1.001944  7.89327  5.792381  0.621299  1.139699  -10.443166  -1.361144  -9.755515  -6.877455  5.79446  1.965201  7.480597  1.10664  0.916659  1.248579  -1.743612  0.915971  3.351626  -4.811113  2.416744  3.351626  -4.811113  2.416744  -20.764148  28.884281  -15.341561  123.544878  37.273344  -176.548356  59.744317  -4.070641  39.687675  91.009231  34.355972  -2.825967  0.088423  1.402125  18.682264  93.256215  40.363629  29.733516  1.492222  -35.003969  -112.508925  62.524933  36.633034  13.063843  1.038957  8.91541  2.037109  0.747715  6.690121  1.509472  
0.0  93.25843  0.0  -1.572056  -28.66795  -91.315599  19.504449  -13.295379  3.497493  5.990641  -0.833995  8.222548  5.747545  0.601785  1.184381  -10.991814  -1.660126  -9.792278  -6.634814  6.147811  2.304471  7.617558  1.101358  0.969941  1.276016  -1.784353  0.912018  3.425739  -4.923198  2.401928  3.425739  -4.923197  2.401928  -20.349322  29.104003  -15.118528  124.518415  37.618293  -176.143531  58.543247  -4.912064  40.315429  90.699241  33.698914  -2.902813  -0.399112  1.472677  18.632718  93.316478  40.144014  29.724325  0.847508  -34.704755  -112.14685  62.424296  36.368231  13.066174  0.774154  8.828698  2.060169  0.549496  6.624227  1.530794  
0.0  93.25843  0.0  -1.639212  -28.229981  -91.303995  19.129194  -13.480712  3.241917  5.982497  -0.701653  8.660646  5.641833  0.587133  1.199944  -11.320854  -1.816091  -9.815833  -6.23104  6.501574  2.759102  7.540288  1.123179  0.947836  1.329363  -1.80127  0.902656  3.571971  -4.970799  2.371432  3.571971  -4.970799  2.371432  -20.190448  29.23973  -14.88095  125.42266  37.986988  -175.670123  57.198026  -5.8952  40.999302  90.15652  33.051266  -2.97108  -0.70492  1.479851  18.839793  92.869451  40.16902  29.529789  0.348021  -34.322382  -111.879836  62.622495  36.075931  13.333012  0.420576  8.748273  2.075539  0.284903  6.562722  1.547553  
0.0  93.25843  0.0  -1.734703  -27.768057  -91.340096  19.069611  -13.769816  3.1224  5.659049  -0.503926  8.943716  5.534843  0.557129  1.239025  -11.712688  -1.984156  -9.809283  -5.648971  6.858952  3.256695  7.117191  1.135728  0.840118  1.358952  -1.838209  0.89128  3.652735  -5.072127  2.336124  3.652736  -5.072127  2.336124  -19.715138  29.682721  -14.631015  128.286479  38.223159  -175.158015  57.303561  -7.808256  42.368685  89.680756  32.307929  -3.05751  -1.187063  1.621967  18.892042  92.519686  40.054151  29.319454  0.01029  -33.915394  -111.650018  62.791316  35.702812  13.54391  0.10376  8.699688  2.116849  0.04733  6.525217  1.583083  
0.0  93.25843  0.0  -1.732035  -27.072618  -91.32875  18.690219  -13.922916  2.754069  5.526858  -0.341274  9.48112  5.39194  0.529079  1.258204  -12.064638  -2.025995  -9.871304  -5.416497  7.127571  3.671635  7.060348  1.176892  0.845848  1.397447  -1.857862  0.863247  3.759744  -5.125563  2.255349  3.759744  -5.125563  2.255349  -19.572164  30.030359  -14.368094  129.407426  38.559516  -174.716556  55.833027  -9.000346  43.254364  89.105361  31.504245  -3.168408  -1.515671  1.707989  19.212237  91.824479  40.126321  29.014029  -0.416829  -33.501432  -111.415317  63.042742  35.401729  13.768866  -0.328784  8.667045  2.159891  -0.276959  6.499223  1.621508  
0.0  93.25843  0.0  -1.819244  -26.80035  -91.501709  19.290637  -14.316775  2.718775  5.004933  -0.11913  9.823236  5.050897  0.487189  1.195295  -11.79323  -2.072232  -9.604428  -4.927345  7.362116  4.143571  6.703034  1.218004  0.742862  1.509284  -1.89768  0.860401  4.065089  -5.237842  2.236471  4.065089  -5.237842  2.236472  -19.266889  30.573812  -13.967876  130.63247  38.907379  -174.261395  54.366502  -10.293934  44.245619  88.543591  30.564181  -3.25734  -2.114493  1.84771  19.439501  91.063452  40.181953  28.656356  -0.690633  -33.106317  -111.224893  63.151771  35.032188  13.803427  -0.845299  8.620895  2.221193  -0.664327  6.462722  1.674744  
0.0  93.25843  0.0  -1.821982  -25.778515  -91.413159  19.07677  -14.493124  2.195939  4.608982  0.090713  10.371367  4.834744  0.432972  1.22841  -12.263947  -2.039937  -9.589655  -4.748717  7.508392  4.376282  6.656356  1.234419  0.745556  1.549812  -1.920093  0.800895  4.180272  -5.29667  2.068978  4.180272  -5.29667  2.068978  -19.215019  30.994562  -13.557438  132.24632  39.252885  -173.574706  52.799561  -11.605866  45.400833  88.028697  29.505648  -3.279693  -2.59288  1.9205  19.890417  90.191725  40.310143  28.327046  -1.140928  -32.701369  -111.004924  63.410747  34.690797  13.904827  -1.446736  8.614497  2.307492  -1.115761  6.455576  1.747883  
0.0  93.25843  0.0  -1.885349  -24.744473  -91.358338  19.350359  -14.779381  1.789474  3.991608  0.316183  10.855739  4.386847  0.353058  1.126625  -12.511862  -1.943669  -9.370566  -3.871158  7.599482  4.749948  6.241142  1.237811  0.65778  1.617131  -1.940007  0.757398  4.367693  -5.35024  1.943196  4.367693  -5.35024  1.943196  -18.767558  31.625981  -13.029673  133.492717  39.734468  -173.0802  51.176963  -12.894457  46.878529  87.58695  28.33386  -3.195784  -3.490214  1.879493  20.036659  89.241862  40.424473  28.024845  -1.560556  -32.242648  -110.754296  63.398201  34.10957  13.734943  -2.205677  8.535975  2.335687  -1.68405  6.393782  1.779546  
0.0  93.25843  0.0  -1.93722  -23.337348  -91.243547  19.171788  -15.021029  1.126397  3.375801  0.561251  11.414016  4.172175  0.281231  1.178245  -13.135861  -1.787318  -9.256096  -3.814283  7.547153  4.871345  6.096205  1.238037  0.660691  1.617407  -1.95391  0.700642  4.372799  -5.384511  1.786914  4.372798  -5.38451  1.786914  -18.502151  31.950105  -12.543374  135.579221  40.274695  -172.249834  49.505382  -14.120201  48.758579  87.126614  27.129346  -2.99934  -3.838329  1.819937  20.411162  88.119802  40.540447  27.700032  -2.169734  -31.688205  -110.46666  63.728014  33.58469  13.864374  -2.847894  8.511522  2.404974  -2.165725  6.372743  1.840368  
0.0  93.25843  0.0  -2.022027  -21.936363  -91.220871  19.290566  -15.342361  0.541951  2.769543  0.815804  12.030112  3.954442  0.181151  1.213526  -13.476998  -1.554467  -8.93428  -3.788021  7.478723  4.953815  6.092937  1.267074  0.676565  1.636118  -1.963037  0.682634  4.42535  -5.408728  1.735487  4.42535  -5.408727  1.735487  -18.283736  32.155272  -12.249755  137.900049  40.785755  -171.394258  47.783668  -15.248669  51.077448  86.618446  26.235962  -2.615766  -5.082311  1.591313  20.028608  87.456367  40.385249  27.661661  -3.294891  -30.824166  -109.787568  63.2954  32.559204  13.396746  -3.579226  8.427272  2.386364  -2.712722  6.306882  1.836277  
0.0  93.25843  0.0  -2.122689  -20.175175  -91.102872  19.237718  -15.663428  -0.204669  1.93214  1.096006  12.513749  3.755296  0.100246  1.24455  -14.179619  -1.32625  -8.722066  -4.220703  7.32861  4.934375  5.930628  1.268769  0.678225  1.590882  -1.970935  0.650339  4.303971  -5.427096  1.650312  4.303971  -5.427096  1.650312  -17.722167  32.294358  -11.934654  140.361526  41.202285  -170.493193  46.0451  -16.273546  53.772948  85.939407  25.593753  -2.066987  -5.262224  1.427834  20.244039  86.137064  40.505683  27.421105  -4.254614  -29.874913  -109.330013  63.862326  31.755593  13.825418  -4.248148  8.377569  2.364888  -3.213085  6.267247  1.829199  
